<svg width="24" height="24" viewBox="0 0 24 24" fill="none" xmlns="http://www.w3.org/2000/svg">
<path d="M18.5719 5.86862C18.0294 4.57323 17.1161 3.46706 15.9468 2.68911C14.7775 1.91115 13.4044 1.49609 12 1.49609C10.5956 1.49609 9.2225 1.91115 8.05323 2.68911C6.88397 3.46706 5.97069 4.57323 5.42815 5.86862C4.26076 6.4096 3.27146 7.27167 2.57586 8.35407C1.88027 9.43647 1.50712 10.6945 1.50002 11.9811C1.49065 15.6186 4.44377 18.6561 8.0719 18.7499C9.1728 18.7786 10.264 18.5372 11.25 18.0467V21.7499C11.25 21.9488 11.329 22.1396 11.4697 22.2802C11.6103 22.4209 11.8011 22.4999 12 22.4999C12.1989 22.4999 12.3897 22.4209 12.5304 22.2802C12.671 22.1396 12.75 21.9488 12.75 21.7499V18.0467C13.6824 18.5093 14.7092 18.7499 15.75 18.7499H15.9281C19.5563 18.6561 22.5094 15.6186 22.5 11.9811C22.4929 10.6945 22.1198 9.43647 21.4242 8.35407C20.7286 7.27167 19.7393 6.4096 18.5719 5.86862ZM15.8906 17.2499C14.8054 17.278 13.738 16.9702 12.8344 16.3686L12.75 16.3124V12.4592L16.8375 10.4249C17.0165 10.3354 17.1527 10.1784 17.216 9.98852C17.2793 9.79864 17.2645 9.5914 17.175 9.41238C17.0855 9.23335 16.9286 9.09722 16.7387 9.03393C16.5488 8.97064 16.3415 8.98537 16.1625 9.07488L12.75 10.7905V8.24988C12.75 8.05096 12.671 7.8602 12.5304 7.71955C12.3897 7.57889 12.1989 7.49988 12 7.49988C11.8011 7.49988 11.6103 7.57889 11.4697 7.71955C11.329 7.8602 11.25 8.05096 11.25 8.24988V13.0405L7.83752 11.3249C7.74888 11.2806 7.65238 11.2541 7.55352 11.2471C7.45466 11.2401 7.35539 11.2526 7.26137 11.2839C7.16735 11.3153 7.08043 11.3648 7.00556 11.4298C6.93069 11.4947 6.86934 11.5737 6.82502 11.6624C6.7807 11.751 6.75427 11.8475 6.74725 11.9464C6.74022 12.0452 6.75274 12.1445 6.78408 12.2385C6.81542 12.3325 6.86497 12.4195 6.9299 12.4943C6.99484 12.5692 7.07388 12.6306 7.16252 12.6749L11.25 14.7092V16.3124L11.1656 16.3686C10.262 16.9702 9.19461 17.278 8.1094 17.2499C5.28752 17.1749 2.99065 14.8124 3.00002 11.9811C3.00658 10.9807 3.29736 10.0026 3.83847 9.1611C4.37958 8.31956 5.14873 7.64915 6.05627 7.228C6.39572 7.06977 6.66574 6.79308 6.81565 6.44988C7.24515 5.42957 7.96617 4.55869 8.88838 3.94631C9.8106 3.33393 10.893 3.00728 12 3.00728C13.107 3.00728 14.1894 3.33393 15.1117 3.94631C16.0339 4.55869 16.7549 5.42957 17.1844 6.44988C17.3343 6.79308 17.6043 7.06977 17.9438 7.228C18.8513 7.64915 19.6205 8.31956 20.1616 9.1611C20.7027 10.0026 20.9935 10.9807 21 11.9811C21.0094 14.8124 18.7125 17.1749 15.8906 17.2499Z" fill="black"/>
</svg>
