<svg width="24" height="24" viewBox="0 0 24 24" fill="none" xmlns="http://www.w3.org/2000/svg">
<path d="M20.8 12.8001C20.8 18.0961 17.296 22.4001 12 22.4001C6.70401 22.4001 3.20001 18.0961 3.20001 12.8001C4.96766 12.815 6.687 13.3789 8.1202 14.4136C9.5534 15.4484 10.6296 16.903 11.2 18.5761V11.2001H7.20001C6.56349 11.2001 5.95304 10.9473 5.50296 10.4972C5.05287 10.0471 4.80001 9.43665 4.80001 8.80013V4.00013C4.80001 3.83222 4.85284 3.66857 4.95102 3.53236C5.04919 3.39615 5.18774 3.29428 5.34703 3.24118C5.50632 3.18809 5.67828 3.18646 5.83855 3.23652C5.99881 3.28658 6.13927 3.38581 6.24001 3.52013L8.68801 6.72013L11.328 1.92013C11.4005 1.80785 11.5 1.71554 11.6174 1.65161C11.7348 1.58769 11.8663 1.5542 12 1.5542C12.1337 1.5542 12.2652 1.58769 12.3826 1.65161C12.5 1.71554 12.5995 1.80785 12.672 1.92013L15.312 6.72013L17.76 3.52013C17.8608 3.38581 18.0012 3.28658 18.1615 3.23652C18.3217 3.18646 18.4937 3.18809 18.653 3.24118C18.8123 3.29428 18.9508 3.39615 19.049 3.53236C19.1472 3.66857 19.2 3.83222 19.2 4.00013V8.80013C19.2 9.43665 18.9472 10.0471 18.4971 10.4972C18.047 10.9473 17.4365 11.2001 16.8 11.2001H12.8V18.5761C13.3704 16.903 14.4466 15.4484 15.8798 14.4136C17.313 13.3789 19.0324 12.815 20.8 12.8001Z" fill="black"/>
</svg>
