<svg width="24" height="24" viewBox="0 0 24 24" fill="none" xmlns="http://www.w3.org/2000/svg">
<path fill-rule="evenodd" clip-rule="evenodd" d="M22.125 12.75H20.625V14.25H22.125V12.75Z" fill="black"/>
<path fill-rule="evenodd" clip-rule="evenodd" d="M22.1325 17.2365V15.1658C22.6508 15.072 23.1194 14.7984 23.4558 14.3931C23.7922 13.9879 23.9748 13.4769 23.9715 12.9503C23.9698 12.656 23.9092 12.365 23.7933 12.0945C23.6773 11.824 23.5084 11.5794 23.2965 11.3753L15.4515 3.645C15.0301 3.23098 14.4628 2.99931 13.872 3L13.8683 3.00375C13.2798 3.00284 12.7144 3.2325 12.2933 3.6435L11.343 4.575C11.1802 4.32228 10.9566 4.11438 10.6928 3.97027C10.4289 3.82616 10.1332 3.75043 9.83251 3.75H8.19001C7.71022 3.75119 7.25049 3.94263 6.91164 4.28231C6.5728 4.622 6.38251 5.08221 6.38251 5.562V9.462L4.41526 11.4C4.12122 11.6901 3.91337 12.056 3.81481 12.4571C3.71625 12.8582 3.73085 13.2788 3.85698 13.6721C3.98311 14.0654 4.21583 14.416 4.52927 14.685C4.84272 14.954 5.22462 15.1308 5.63251 15.1958V21H4.88251V15.7628C4.21259 15.4971 3.66155 14.9977 3.33133 14.3572C3.00111 13.7166 2.91406 12.9781 3.08626 12.2783C3.21808 11.7424 3.49586 11.2535 3.88876 10.866L5.63251 9.1485V7.5C4.27201 7.52475 3.17476 8.6565 3.17476 10.0463H3.11401C1.86226 10.0463 0.839264 11.0783 0.839264 12.3593V12.8333C0.839264 13.3065 0.984764 13.749 1.22176 14.1218C0.848295 14.3429 0.53909 14.6578 0.32479 15.0352C0.11049 15.4126 -0.00146701 15.8395 1.45149e-05 16.2735C1.45149e-05 17.64 1.09126 18.75 2.43451 18.75H3.75001V21C2.92501 21 2.25001 21.675 2.25001 22.5H23.25C23.2504 22.2851 23.2043 22.0727 23.115 21.8772C23.0257 21.6818 22.8952 21.5079 22.7325 21.3675C22.8815 21.139 22.9997 20.8919 23.0843 20.6325C23.2722 20.0759 23.2998 19.4776 23.1637 18.9061C23.0276 18.3346 22.7334 17.8129 22.3148 17.4008L22.3095 17.3963C22.2525 17.3409 22.1934 17.2876 22.1325 17.2365ZM10.1325 5.562V7.131L7.88251 9.35025V5.562C7.88222 5.52132 7.88994 5.48099 7.90523 5.44329C7.92052 5.4056 7.94309 5.37129 7.97164 5.34231C8.0002 5.31334 8.03418 5.29028 8.07165 5.27444C8.10912 5.2586 8.14934 5.2503 8.19001 5.25H9.83251C9.87294 5.24997 9.91296 5.25811 9.95016 5.27393C9.98736 5.28975 10.021 5.31293 10.049 5.34207C10.077 5.37121 10.0989 5.40571 10.1132 5.44351C10.1276 5.4813 10.1341 5.52161 10.1325 5.562ZM7.13251 21V12.915L13.869 6.27375L20.625 12.9263V14.25H20.6325V16.5413C20.2568 16.4794 19.873 16.4868 19.5 16.563V14.037C19.4996 13.8947 19.4429 13.7583 19.3423 13.6577C19.2417 13.5571 19.1053 13.5004 18.963 13.5H16.287C16.1447 13.5004 16.0084 13.5571 15.9077 13.6577C15.8071 13.7583 15.7504 13.8947 15.75 14.037V16.713C15.7508 16.8552 15.8076 16.9913 15.9082 17.0918C16.0087 17.1924 16.1448 17.2492 16.287 17.25H18.0998C17.7776 17.5247 17.5132 17.8607 17.322 18.2385C16.9193 18.3757 16.5622 18.6212 16.29 18.9482C16.0178 19.2751 15.8411 19.6708 15.7793 20.0918C15.7673 20.1443 15.7605 20.1983 15.7598 20.2523C15.7522 20.3124 15.749 20.3731 15.75 20.4338V20.4413C15.75 20.6348 15.774 20.8215 15.8183 21H15C15 20.5883 14.7285 20.25 14.3978 20.25H14.2485V14.3415C14.2485 13.8758 13.9058 13.5 13.4805 13.5H10.518C10.0928 13.5 9.75001 13.8758 9.75001 14.3415V20.25H9.60226C9.27226 20.25 9.00001 20.5883 9.00001 21H7.13251ZM16.605 21C16.7243 21.3068 16.9395 21.5648 17.2125 21.7425H21.24V21.75L21.2535 21.7425C21.6141 21.5484 21.9172 21.2628 22.1325 20.9145C22.2329 20.7517 22.3135 20.5774 22.3725 20.3955C22.517 19.9719 22.5387 19.5161 22.4352 19.0807C22.3317 18.6453 22.1071 18.248 21.7875 17.9348C21.3449 17.4953 20.7462 17.2491 20.1225 17.25C19.185 17.25 18.3675 17.8065 17.9775 18.6045C17.9389 18.6857 17.8835 18.7579 17.815 18.8162C17.7465 18.8745 17.6664 18.9176 17.58 18.9428C17.01 19.1235 16.59 19.6358 16.515 20.2448C16.5075 20.2598 16.5075 20.2748 16.515 20.2898C16.5 20.3348 16.5 20.3873 16.5 20.4405C16.5 20.6385 16.5375 20.8268 16.605 21ZM13.125 18C13.2245 18 13.3199 17.9605 13.3902 17.8902C13.4605 17.8198 13.5 17.7245 13.5 17.625C13.5 17.5255 13.4605 17.4302 13.3902 17.3598C13.3199 17.2895 13.2245 17.25 13.125 17.25C13.0256 17.25 12.9302 17.2895 12.8598 17.3598C12.7895 17.4302 12.75 17.5255 12.75 17.625C12.75 17.7245 12.7895 17.8198 12.8598 17.8902C12.9302 17.9605 13.0256 18 13.125 18Z" fill="black"/>
</svg>
