<svg width="24" height="24" viewBox="0 0 24 24" fill="none" xmlns="http://www.w3.org/2000/svg">
<path d="M2.94422 1.25977L2.13328 1.49414L2.54016 2.90414L1.16391 2.56383L0.961409 3.3832L2.43844 3.74883L1.38235 4.84664L1.99031 5.42789L2.97375 4.40695L3.38063 5.81695L4.19156 5.58258L3.75656 4.07508L5.32969 4.46414L5.53594 3.64477L4.05985 3.27961L5.11406 2.18508L4.50563 1.60008L3.38016 2.77008L2.94422 1.25977ZM14.6297 1.78336L14.5031 2.45414L14.0109 2.03133L13.4578 2.67164L14.0016 3.13664L13.3266 3.37383L13.6078 4.16977L14.2266 3.95227L14.1 4.62398L14.925 4.77633L15.0609 4.04555L15.6516 4.55133L16.2047 3.91102L15.6609 3.44602L16.3359 3.20883L16.0547 2.41289L15.3188 2.67258L15.4547 1.93805L14.6297 1.78336ZM21.3609 4.73883L21.0656 5.69977L20.4094 4.99195L19.7906 5.56383L20.5031 6.33258L19.4813 6.56695L19.6688 7.39195L20.6156 7.17633L20.3203 8.13727L21.1266 8.38102L21.4453 7.34039L22.2141 8.17008L22.8328 7.5982L22.1156 6.82945L23.1375 6.59508L22.95 5.77008L21.8484 6.0232L22.1672 4.98258L21.3609 4.73883ZM12 6.42164C9.86719 6.42164 8.08125 7.30758 6.22969 8.50758C4.575 9.5857 2.88516 10.9076 0.90094 11.9998C2.88516 13.092 4.575 14.4138 6.22969 15.492C8.08125 16.692 9.86719 17.5779 12 17.5779C14.1328 17.5779 15.9188 16.692 17.7703 15.492C19.425 14.4138 21.1172 13.092 23.1 11.9998C21.1172 10.9076 19.425 9.5857 17.7703 8.50758C15.9188 7.30758 14.1328 6.42164 12 6.42164ZM12 7.07789C14.7141 7.07789 16.9219 9.2857 16.9219 11.9998C16.9219 14.7138 14.7141 16.9216 12 16.9216C9.28594 16.9216 7.07813 14.7138 7.07813 11.9998C7.07813 9.2857 9.28594 7.07789 12 7.07789ZM12 7.98727L10.6266 8.77945L11.4281 10.167C11.6109 10.1107 11.8031 10.0779 12 10.0779C12.1969 10.0779 12.3891 10.1107 12.5719 10.167L13.3734 8.77945L12 7.98727ZM9.89531 9.20133L8.52656 9.99352V11.5779H10.125C10.2141 11.1935 10.4156 10.8513 10.6969 10.5888L9.89531 9.20133ZM14.1047 9.20133L13.3031 10.5888C13.5844 10.8513 13.7859 11.1935 13.875 11.5779H15.4734V9.99352L14.1047 9.20133ZM12 10.9216C11.4 10.9216 10.9219 11.3998 10.9219 11.9998C10.9219 12.5998 11.4 13.0779 12 13.0779C12.6 13.0779 13.0781 12.5998 13.0781 11.9998C13.0781 11.3998 12.6 10.9216 12 10.9216ZM8.52656 12.4216V14.006L9.89531 14.7982L10.6969 13.4107C10.4156 13.1482 10.2141 12.806 10.125 12.4216H8.52656ZM13.875 12.4216C13.7859 12.806 13.5844 13.1482 13.3031 13.4107L14.1047 14.7982L15.4734 14.006V12.4216H13.875ZM11.4281 13.8326L10.6266 15.2201L12 16.0123L13.3734 15.2201L12.5719 13.8326C12.3891 13.8888 12.1969 13.9216 12 13.9216C11.8031 13.9216 11.6109 13.8888 11.4281 13.8326ZM3.5475 15.9091V16.9123L2.71313 16.4295L2.29125 17.1607L3.19641 17.681L2.29125 18.206L2.71313 18.9373L3.5475 18.4545V19.4576H4.39125V18.3748L5.36719 18.9373L5.78906 18.206L4.88438 17.681L5.78906 17.1607L5.36719 16.4295L4.39125 16.992V15.9091H3.5475ZM19.7016 17.5732L19.5938 18.2951L19.05 17.8591L18.525 18.5154L19.1156 18.9888L18.4078 19.2654L18.7172 20.0529L19.3594 19.8045L19.2516 20.5216L20.0859 20.6529L20.2078 19.8607L20.8547 20.381L21.3797 19.7248L20.7891 19.2513L21.4969 18.9748L21.1875 18.1873L20.4188 18.4873L20.5359 17.7045L19.7016 17.5732ZM10.2797 18.8716L9.87656 20.0998L9.04688 19.1763L8.41875 19.7388L9.31406 20.7373L8.00625 21.0091L8.175 21.8341L9.39375 21.581L8.99063 22.8045L9.79688 23.067L10.2281 21.7545L11.1844 22.8185L11.8125 22.256L10.9172 21.2623L12.2297 20.9857L12.0609 20.1607L10.6547 20.456L11.0859 19.1341L10.2797 18.8716Z" fill="black"/>
</svg>
