<svg width="24" height="24" viewBox="0 0 24 24" fill="none" xmlns="http://www.w3.org/2000/svg">
<path d="M3.72502 11C3.34169 11 3.05436 10.8373 2.86302 10.512C2.67102 10.1873 2.66669 9.85833 2.85002 9.525L6.15002 3.575C6.25002 3.39167 6.37502 3.25833 6.52502 3.175C6.67502 3.09167 6.84169 3.05 7.02502 3.05C7.20836 3.05 7.37502 3.09167 7.52502 3.175C7.67502 3.25833 7.80002 3.39167 7.90002 3.575L11.2 9.525C11.3834 9.85833 11.3794 10.1873 11.188 10.512C10.996 10.8373 10.7084 11 10.325 11H3.72502ZM7.02502 21C5.92502 21 4.98336 20.6083 4.20002 19.825C3.41669 19.0417 3.02502 18.1 3.02502 17C3.02502 15.8833 3.41669 14.9373 4.20002 14.162C4.98336 13.3873 5.92502 13 7.02502 13C8.12502 13 9.06669 13.3917 9.85002 14.175C10.6334 14.9583 11.025 15.9 11.025 17C11.025 18.1 10.6334 19.0417 9.85002 19.825C9.06669 20.6083 8.12502 21 7.02502 21ZM14.025 21C13.7417 21 13.504 20.904 13.312 20.712C13.1207 20.5207 13.025 20.2833 13.025 20V14C13.025 13.7167 13.1207 13.479 13.312 13.287C13.504 13.0957 13.7417 13 14.025 13H20.025C20.3084 13 20.546 13.0957 20.738 13.287C20.9294 13.479 21.025 13.7167 21.025 14V20C21.025 20.2833 20.9294 20.5207 20.738 20.712C20.546 20.904 20.3084 21 20.025 21H14.025ZM17.025 10.625C16.8917 10.625 16.7584 10.604 16.625 10.562C16.4917 10.5207 16.375 10.4583 16.275 10.375C15.3584 9.60833 14.6207 8.975 14.062 8.475C13.504 7.975 13.075 7.54167 12.775 7.175C12.475 6.80833 12.275 6.475 12.175 6.175C12.075 5.875 12.025 5.54167 12.025 5.175C12.025 4.425 12.2874 3.79167 12.812 3.275C13.3374 2.75833 13.9917 2.5 14.775 2.5C15.225 2.5 15.646 2.604 16.038 2.812C16.4294 3.02067 16.7584 3.30833 17.025 3.675C17.2917 3.30833 17.621 3.02067 18.013 2.812C18.4044 2.604 18.825 2.5 19.275 2.5C20.0584 2.5 20.7127 2.75833 21.238 3.275C21.7627 3.79167 22.025 4.425 22.025 5.175C22.025 5.525 21.9794 5.85 21.888 6.15C21.796 6.45 21.6 6.78333 21.3 7.15C21 7.51667 20.571 7.954 20.013 8.462C19.4544 8.97067 18.7167 9.60833 17.8 10.375C17.7 10.4583 17.5794 10.5207 17.438 10.562C17.296 10.604 17.1584 10.625 17.025 10.625Z" fill="black"/>
</svg>
