<svg width="24" height="24" viewBox="0 0 24 24" fill="none" xmlns="http://www.w3.org/2000/svg">
<path d="M3.7 11C3.31667 11 3.02933 10.8373 2.838 10.512C2.646 10.1873 2.64167 9.85833 2.825 9.525L6.125 3.575C6.225 3.39167 6.35 3.25833 6.5 3.175C6.65 3.09167 6.81667 3.05 7 3.05C7.18333 3.05 7.35 3.09167 7.5 3.175C7.65 3.25833 7.775 3.39167 7.875 3.575L11.175 9.525C11.3583 9.85833 11.3543 10.1873 11.163 10.512C10.971 10.8373 10.6833 11 10.3 11H3.7ZM7 21C5.9 21 4.95833 20.6083 4.175 19.825C3.39167 19.0417 3 18.1 3 17C3 15.8833 3.39167 14.9373 4.175 14.162C4.95833 13.3873 5.9 13 7 13C8.1 13 9.04167 13.3917 9.825 14.175C10.6083 14.9583 11 15.9 11 17C11 18.1 10.6083 19.0417 9.825 19.825C9.04167 20.6083 8.1 21 7 21ZM7 19C7.55 19 8.02067 18.8043 8.412 18.413C8.804 18.021 9 17.55 9 17C9 16.45 8.804 15.9793 8.412 15.588C8.02067 15.196 7.55 15 7 15C6.45 15 5.97933 15.196 5.588 15.588C5.196 15.9793 5 16.45 5 17C5 17.55 5.196 18.021 5.588 18.413C5.97933 18.8043 6.45 19 7 19ZM5.4 9H8.6L7 6.125L5.4 9ZM14 21C13.7167 21 13.4793 20.904 13.288 20.712C13.096 20.5207 13 20.2833 13 20V14C13 13.7167 13.096 13.479 13.288 13.287C13.4793 13.0957 13.7167 13 14 13H20C20.2833 13 20.5207 13.0957 20.712 13.287C20.904 13.479 21 13.7167 21 14V20C21 20.2833 20.904 20.5207 20.712 20.712C20.5207 20.904 20.2833 21 20 21H14ZM15 19H19V15H15V19ZM17 10.625C16.8667 10.625 16.7333 10.604 16.6 10.562C16.4667 10.5207 16.35 10.4583 16.25 10.375C15.3333 9.60833 14.596 8.975 14.038 8.475C13.4793 7.975 13.05 7.54167 12.75 7.175C12.45 6.80833 12.25 6.475 12.15 6.175C12.05 5.875 12 5.54167 12 5.175C12 4.425 12.2627 3.79167 12.788 3.275C13.3127 2.75833 13.9667 2.5 14.75 2.5C15.2 2.5 15.621 2.604 16.013 2.812C16.4043 3.02067 16.7333 3.30833 17 3.675C17.2667 3.30833 17.596 3.02067 17.988 2.812C18.3793 2.604 18.8 2.5 19.25 2.5C20.0333 2.5 20.6873 2.75833 21.212 3.275C21.7373 3.79167 22 4.425 22 5.175C22 5.525 21.9543 5.85 21.863 6.15C21.771 6.45 21.575 6.78333 21.275 7.15C20.975 7.51667 20.546 7.954 19.988 8.462C19.4293 8.97067 18.6917 9.60833 17.775 10.375C17.675 10.4583 17.5543 10.5207 17.413 10.562C17.271 10.604 17.1333 10.625 17 10.625ZM17 8.375C18.2 7.375 19 6.66667 19.4 6.25C19.8 5.83333 20 5.49167 20 5.225C20 5.00833 19.9373 4.83333 19.812 4.7C19.6873 4.56667 19.5167 4.5 19.3 4.5C19.1333 4.5 18.9707 4.54567 18.812 4.637C18.654 4.729 18.4583 4.89167 18.225 5.125L17 6.3L15.775 5.125C15.5417 4.89167 15.346 4.729 15.188 4.637C15.0293 4.54567 14.8667 4.5 14.7 4.5C14.4833 4.5 14.3127 4.56667 14.188 4.7C14.0627 4.83333 14 5.00833 14 5.225C14 5.49167 14.2 5.83333 14.6 6.25C15 6.66667 15.8 7.375 17 8.375Z" fill="black"/>
</svg>
