<svg width="24" height="24" viewBox="0 0 24 24" fill="none" xmlns="http://www.w3.org/2000/svg">
<path fill-rule="evenodd" clip-rule="evenodd" d="M7 14C7.53043 14 8.03914 13.7893 8.41421 13.4143C8.78929 13.0392 9 12.5305 9 12C9 11.4696 8.78929 10.9609 8.41421 10.5858C8.03914 10.2108 7.53043 10 7 10C6.46957 10 5.96086 10.2108 5.58579 10.5858C5.21071 10.9609 5 11.4696 5 12C5 12.5305 5.21071 13.0392 5.58579 13.4143C5.96086 13.7893 6.46957 14 7 14ZM10.465 10C10.0675 9.31244 9.4744 8.75867 8.7612 8.40921C8.04799 8.05974 7.24693 7.93039 6.45998 8.03762C5.67302 8.14485 4.93577 8.48381 4.34206 9.01135C3.74836 9.53889 3.32504 10.2312 3.126 11H2C1.73478 11 1.48043 11.1054 1.29289 11.2929C1.10536 11.4805 1 11.7348 1 12C1 12.2653 1.10536 12.5196 1.29289 12.7071C1.48043 12.8947 1.73478 13 2 13H3.126C3.37173 13.9405 3.95136 14.7594 4.75667 15.3038C5.56198 15.8482 6.53791 16.0809 7.50222 15.9585C8.46654 15.836 9.35332 15.3667 9.99697 14.6383C10.6406 13.9099 10.9972 12.9721 11 12H13C12.999 12.9743 13.3537 13.9154 13.9974 14.6468C14.6411 15.3781 15.5295 15.8494 16.496 15.9721C17.4625 16.0949 18.4406 15.8606 19.2467 15.3134C20.0528 14.7662 20.6314 13.9436 20.874 13H22C22.2652 13 22.5196 12.8947 22.7071 12.7071C22.8946 12.5196 23 12.2653 23 12C23 11.7348 22.8946 11.4805 22.7071 11.2929C22.5196 11.1054 22.2652 11 22 11H20.874C20.675 10.2312 20.2516 9.53889 19.6579 9.01135C19.0642 8.48381 18.327 8.14485 17.54 8.03762C16.7531 7.93039 15.952 8.05974 15.2388 8.40921C14.5256 8.75867 13.9325 9.31244 13.535 10H10.465ZM15 12C15 12.5305 15.2107 13.0392 15.5858 13.4143C15.9609 13.7893 16.4696 14 17 14C17.5304 14 18.0391 13.7893 18.4142 13.4143C18.7893 13.0392 19 12.5305 19 12C19 11.4696 18.7893 10.9609 18.4142 10.5858C18.0391 10.2108 17.5304 10 17 10C16.4696 10 15.9609 10.2108 15.5858 10.5858C15.2107 10.9609 15 11.4696 15 12Z" fill="black"/>
</svg>
