<svg width="24" height="24" viewBox="0 0 24 24" fill="none" xmlns="http://www.w3.org/2000/svg">
<path d="M12.744 2.6545C12.5324 2.48769 12.2707 2.39697 12.0012 2.39697C11.7317 2.39697 11.4701 2.48769 11.2584 2.6545L7.28883 5.7865C6.32283 6.5485 6.44043 7.8781 7.21923 8.5633L5.46243 10.0105C4.30683 10.9645 4.77483 12.7369 6.07443 13.1245L4.17123 14.9077C2.98803 16.0153 3.77283 18.0001 5.39403 18.0001H9.60003V20.1001C9.60003 20.9281 10.272 21.6001 11.1 21.6001H12.9C13.728 21.6001 14.4 20.9281 14.4 20.1001V18.0001H18.6048C20.226 18.0001 21.0108 16.0141 19.8264 14.9065L17.922 13.1257C19.2252 12.7405 19.6956 10.9657 18.5376 10.0117L16.7832 8.5645C17.562 7.8793 17.6796 6.5485 16.7148 5.7865L12.744 2.6545ZM10.8 18.0001H13.2V20.1001C13.2 20.1797 13.1684 20.256 13.1122 20.3122C13.0559 20.3685 12.9796 20.4001 12.9 20.4001H11.1C11.0205 20.4001 10.9442 20.3685 10.8879 20.3122C10.8316 20.256 10.8 20.1797 10.8 20.1001V18.0001Z" fill="black"/>
</svg>
