<svg width="24" height="24" viewBox="0 0 24 24" fill="none" xmlns="http://www.w3.org/2000/svg">
<path d="M12.744 2.6545C12.5324 2.48769 12.2707 2.39697 12.0012 2.39697C11.7317 2.39697 11.4701 2.48769 11.2584 2.6545L7.28883 5.7865C6.32283 6.5485 6.44043 7.8781 7.21923 8.5633L5.46243 10.0105C4.30683 10.9645 4.77483 12.7369 6.07443 13.1245L4.17123 14.9077C2.98803 16.0153 3.77283 18.0001 5.39403 18.0001H9.60003V20.1001C9.60003 20.9281 10.272 21.6001 11.1 21.6001H12.9C13.728 21.6001 14.4 20.9281 14.4 20.1001V18.0001H18.6048C20.226 18.0001 21.0108 16.0141 19.8264 14.9065L17.922 13.1257C19.2252 12.7405 19.6956 10.9657 18.5376 10.0117L16.7832 8.5645C17.562 7.8793 17.6796 6.5485 16.7148 5.7865L12.744 2.6545ZM13.2 18.0001V20.1001C13.2 20.1797 13.1684 20.256 13.1122 20.3122C13.0559 20.3685 12.9796 20.4001 12.9 20.4001H11.1C11.0205 20.4001 10.9442 20.3685 10.8879 20.3122C10.8316 20.256 10.8 20.1797 10.8 20.1001V18.0001H13.2ZM12.0012 3.5965L15.9708 6.7285C16.0676 6.80444 16.1386 6.90827 16.1744 7.02595C16.2102 7.14362 16.209 7.26944 16.1708 7.38638C16.1327 7.50332 16.0596 7.60572 15.9614 7.67972C15.8631 7.75372 15.7445 7.79575 15.6216 7.8001C15.4998 7.80394 15.382 7.84478 15.284 7.91719C15.186 7.9896 15.1123 8.09015 15.0728 8.20546C15.0334 8.32076 15.0299 8.44536 15.063 8.56266C15.0961 8.67997 15.1641 8.78441 15.258 8.8621L17.7744 10.9381C17.8694 11.0168 17.9378 11.1229 17.9704 11.2418C18.0029 11.3608 17.998 11.4869 17.9563 11.603C17.9145 11.7191 17.8381 11.8195 17.7373 11.8905C17.6364 11.9616 17.5162 11.9999 17.3928 12.0001H16.4832C16.3628 12 16.2452 12.0362 16.1457 12.1038C16.0461 12.1715 15.9692 12.2675 15.9249 12.3795C15.8807 12.4914 15.8711 12.6141 15.8975 12.7316C15.9239 12.849 15.985 12.9558 16.0728 13.0381L19.0056 15.7825C19.0918 15.863 19.1517 15.9676 19.1777 16.0826C19.2037 16.1977 19.1945 16.3179 19.1512 16.4276C19.108 16.5373 19.0328 16.6315 18.9354 16.6979C18.8379 16.7644 18.7228 16.8 18.6048 16.8001H5.39403C5.27599 16.8002 5.16066 16.7648 5.06303 16.6984C4.96541 16.6321 4.89 16.5379 4.84664 16.4281C4.80327 16.3184 4.79394 16.1981 4.81987 16.0829C4.8458 15.9678 4.90579 15.8631 4.99203 15.7825L7.92003 13.0381C8.00776 12.956 8.0688 12.8494 8.09525 12.7322C8.1217 12.6149 8.11234 12.4925 8.06837 12.3806C8.02441 12.2688 7.94788 12.1727 7.84868 12.1049C7.74949 12.037 7.6322 12.0005 7.51203 12.0001H6.60723C6.4836 12.0001 6.36297 11.962 6.26185 11.8909C6.16073 11.8198 6.08404 11.7192 6.04227 11.6028C6.00051 11.4864 5.99571 11.36 6.02853 11.2408C6.06135 11.1216 6.13019 11.0155 6.22563 10.9369L8.74323 8.8621C8.83707 8.78448 8.90507 8.68014 8.93819 8.56295C8.97131 8.44575 8.96798 8.32125 8.92865 8.20599C8.88932 8.09074 8.81585 7.99017 8.718 7.91767C8.62014 7.84517 8.50254 7.80417 8.38083 7.8001C8.25791 7.79575 8.13931 7.75372 8.04107 7.67972C7.94284 7.60572 7.86972 7.50332 7.83161 7.38638C7.7935 7.26944 7.79225 7.14362 7.82803 7.02595C7.86381 6.90827 7.93488 6.80444 8.03163 6.7285L12.0012 3.5965Z" fill="black"/>
</svg>
