<svg width="24" height="24" viewBox="0 0 24 24" fill="none" xmlns="http://www.w3.org/2000/svg">
<path d="M12 17.6155C12.2426 17.7718 12.4929 17.9157 12.75 18.0467V21.7499C12.75 21.9488 12.671 22.1396 12.5304 22.2802C12.3897 22.4209 12.1989 22.4999 12 22.4999C11.8011 22.4999 11.6103 22.4209 11.4697 22.2802C11.329 22.1396 11.25 21.9488 11.25 21.7499V18.0467C11.5071 17.9157 11.7574 17.7718 12 17.6155ZM18.5719 5.86862C18.0294 4.57323 17.1161 3.46706 15.9468 2.68911C14.7775 1.91115 13.4044 1.49609 12 1.49609C10.5956 1.49609 9.2225 1.91115 8.05323 2.68911C6.88397 3.46706 5.97069 4.57323 5.42815 5.86862C4.26076 6.4096 3.27146 7.27167 2.57586 8.35407C1.88027 9.43647 1.50712 10.6945 1.50002 11.9811C1.49065 15.6186 4.44377 18.6561 8.0719 18.7499C9.1728 18.7786 10.264 18.5372 11.25 18.0467V14.7092L7.16252 12.6749C6.9835 12.5854 6.84737 12.4284 6.78408 12.2385C6.75274 12.1445 6.74022 12.0452 6.74725 11.9464C6.75427 11.8475 6.7807 11.751 6.82502 11.6624C6.86934 11.5737 6.93069 11.4947 7.00556 11.4298C7.08043 11.3648 7.16735 11.3153 7.26137 11.2839C7.45125 11.2206 7.6585 11.2354 7.83752 11.3249L11.25 13.0405V8.24988C11.25 8.05096 11.329 7.8602 11.4697 7.71955C11.6103 7.57889 11.8011 7.49988 12 7.49988C12.1989 7.49988 12.3897 7.57889 12.5304 7.71955C12.671 7.8602 12.75 8.05096 12.75 8.24988V10.7905L16.1625 9.07488C16.3415 8.98537 16.5488 8.97064 16.7387 9.03393C16.9286 9.09722 17.0855 9.23335 17.175 9.41238C17.2645 9.5914 17.2793 9.79864 17.216 9.98852C17.1527 10.1784 17.0165 10.3354 16.8375 10.4249L12.75 12.4592V18.0467C13.6824 18.5093 14.7092 18.7499 15.75 18.7499H15.9281C19.5563 18.6561 22.5094 15.6186 22.5 11.9811C22.4929 10.6945 22.1198 9.43647 21.4242 8.35407C20.7286 7.27167 19.7393 6.4096 18.5719 5.86862Z" fill="black"/>
</svg>
