<svg width="24" height="24" viewBox="0 0 24 24" fill="none" xmlns="http://www.w3.org/2000/svg">
<path d="M23 4.1V2.3L21.2 2.1C21.1 2.1 20.5 2 19.5 2C15.4 2 12.4 3.2 10.7 5.3C9.40002 4.5 7.60002 4 5.50002 4C4.50002 4 3.80002 4.1 3.80002 4.1L1.90002 4.4L2.00002 6.1C2.10002 9.1 3.60002 14.8 8.80002 14.8H9.00002V18.2C5.20002 18.7 2.00002 20 2.00002 20V22H22V20C22 20 18.8 18.7 15 18.2V15C21.3 14.9 23 7.8 23 4.1ZM12 18H11V12.4C11 12.4 10.8 9 8.00002 9C8.00002 9 9.50002 9.8 9.90002 12.7C9.50002 12.8 9.10002 12.8 8.80002 12.8C4.20002 12.8 4.00002 6.1 4.00002 6.1C4.00002 6.1 4.60002 6 5.50002 6C7.40002 6 10.5 6.4 11.4 9.1C11.9 4.6 17 4 19.5 4C20.4 4 21 4.1 21 4.1C21 4.1 21 13.1 14.7 13.1H14C14 11.1 16 8.1 16 8.1C13 9.1 13 13 13 13V18H12Z" fill="black"/>
</svg>
