<svg width="24" height="24" viewBox="0 0 24 24" fill="none" xmlns="http://www.w3.org/2000/svg">
<path d="M6.55315 1.16992C7.30784 4.12773 8.53128 5.84523 9.2344 6.63273L9.29065 6.69367L9.36565 6.73586C10.1344 7.11086 10.6219 7.89367 10.6219 8.75148C10.6219 9.99836 9.61878 11.0015 8.36722 11.0015C7.12034 11.0015 6.11722 9.99836 6.11722 8.75148C6.11722 8.34836 6.22503 7.9593 6.42659 7.60773L6.56253 7.37336L6.41253 7.14367C5.56409 5.87336 5.48909 4.7343 5.72815 3.54648C5.88284 2.76836 6.20628 1.97148 6.55315 1.16992ZM12.225 6.54367C12.5813 6.54836 12.9235 6.60461 13.2047 6.73117C13.3922 7.11086 13.4953 7.60773 13.7016 8.09523C13.8188 8.35773 13.9782 8.62961 14.2453 8.82648C14.4985 9.01398 14.8313 9.11242 15.2016 9.10773C17.85 9.59055 19.5282 10.3452 20.6532 11.2359C21.7875 12.1218 22.3875 13.153 22.8516 14.2734V14.278C22.9313 14.4609 22.9125 14.578 22.8469 14.7093C22.7766 14.8499 22.6313 14.9905 22.4532 15.089C22.2703 15.1874 22.0547 15.2343 21.886 15.2296C21.7219 15.2202 21.6141 15.1687 21.5391 15.0843C20.9672 14.3859 20.2735 13.4296 19.4063 12.6609C18.5344 11.8921 17.4422 11.2968 16.1485 11.4468C15.1547 11.5593 14.5969 11.1468 13.786 10.6593C13.1532 10.2796 12.375 9.88117 11.3063 9.8343C11.4328 9.4968 11.5032 9.13117 11.5032 8.75148C11.5032 7.98742 11.2219 7.27023 10.7438 6.71242C11.0063 6.66555 11.2922 6.60461 11.5922 6.5718C11.7516 6.55773 11.911 6.54367 12.0703 6.54367H12.225ZM1.09644 7.34992C2.3855 7.77648 3.74956 8.15617 5.32034 8.04367C5.26878 8.27336 5.23597 8.51242 5.23597 8.75148C5.23597 9.47336 5.48909 10.1437 5.90159 10.678C4.55112 10.6687 3.61831 10.1905 2.80269 9.44992C2.17925 8.87805 1.6355 8.12805 1.09644 7.34992ZM8.36722 7.52805C7.6969 7.52805 7.14378 8.08117 7.14378 8.75148C7.14378 9.4218 7.6969 9.97492 8.36722 9.97492C9.03753 9.97492 9.59065 9.4218 9.59065 8.75148C9.59065 8.08117 9.03753 7.52805 8.36722 7.52805ZM8.36722 8.4093C8.56409 8.4093 8.71409 8.55461 8.71409 8.75148C8.71409 8.94367 8.56409 9.09367 8.36722 9.09367C8.17503 9.09367 8.02503 8.94367 8.02503 8.75148C8.02503 8.55461 8.17503 8.4093 8.36722 8.4093ZM9.57659 11.6437C9.8719 14.1093 10.8375 15.7359 11.9766 16.978C13.2328 18.3468 14.6532 19.3077 15.6657 20.6015C15.7219 20.7562 15.7594 21.0749 15.7219 21.4124C15.675 21.7734 15.5578 22.1624 15.3985 22.4343C15.2391 22.6968 15.075 22.814 14.925 22.828C14.7844 22.8421 14.5219 22.7671 14.1282 22.3359C13.2844 20.7749 11.611 18.3609 9.39847 17.3015C8.5219 16.8796 8.10472 16.2843 7.8844 15.5671C7.66878 14.8546 7.67347 14.0109 7.74847 13.2187C7.80472 12.5671 7.67815 12.103 7.52815 11.7655C7.79534 11.8452 8.07659 11.8827 8.36722 11.8827C8.79378 11.8827 9.20628 11.7937 9.57659 11.6437Z" fill="black"/>
</svg>
