<svg width="24" height="24" viewBox="0 0 24 24" fill="none" xmlns="http://www.w3.org/2000/svg">
<path d="M6.40002 8.0002V7.2002C6.40002 6.13933 6.82145 5.12191 7.57159 4.37177C8.32174 3.62162 9.33915 3.2002 10.4 3.2002C11.4609 3.2002 12.4783 3.62162 13.2284 4.37177C13.9786 5.12191 14.4 6.13933 14.4 7.2002V16.469L18.184 12.685L17.6288 10.613L17.6272 10.6034H17.6256C17.5802 10.4331 17.5924 10.2525 17.6601 10.0898C17.7279 9.92708 17.8475 9.7913 18.0004 9.70355C18.1533 9.6158 18.3308 9.581 18.5055 9.60455C18.6802 9.6281 18.8422 9.70869 18.9664 9.8338L22.1664 13.0338C22.2909 13.1579 22.3711 13.3195 22.3945 13.4936C22.418 13.6678 22.3834 13.8449 22.2962 13.9974C22.209 14.15 22.074 14.2696 21.912 14.3378C21.75 14.406 21.5701 14.4189 21.4 14.3746L21.384 14.3698L19.3152 13.8162L14.4 18.7314V19.2002C14.4 19.6245 14.2314 20.0315 13.9314 20.3316C13.6313 20.6316 13.2244 20.8002 12.8 20.8002H8.00002C7.57567 20.8002 7.16871 20.6316 6.86865 20.3316C6.56859 20.0315 6.40002 19.6245 6.40002 19.2002V18.4578L2.77122 14.829C2.02202 14.0782 1.60126 13.0609 1.60126 12.0002C1.60126 10.9395 2.02202 9.92219 2.77122 9.1714C3.14236 8.79949 3.58332 8.50457 4.06877 8.30358C4.55423 8.10259 5.0746 7.99949 5.60002 8.0002H6.40002ZM6.40002 9.6002H5.60002C5.12519 9.59998 4.66096 9.74062 4.26608 10.0043C3.8712 10.268 3.56342 10.6429 3.38168 11.0816C3.19994 11.5203 3.15241 12.003 3.24511 12.4687C3.3378 12.9344 3.56655 13.3621 3.90242 13.6978L6.40002 16.1938V9.6002ZM12.8 8.0002V7.2002C12.8 6.56368 12.5472 5.95323 12.0971 5.50314C11.647 5.05305 11.0365 4.8002 10.4 4.8002C9.7635 4.8002 9.15305 5.05305 8.70296 5.50314C8.25287 5.95323 8.00002 6.56368 8.00002 7.2002V8.0002H12.8Z" fill="black"/>
</svg>
